<svg viewBox="0 0 28 28" fill="none" xmlns="http://www.w3.org/2000/svg">
<path d="M13.9531 25.9062C20.4922 25.9062 25.9062 20.4805 25.9062 13.9531C25.9062 7.41406 20.4805 2 13.9414 2C7.41406 2 2 7.41406 2 13.9531C2 20.4805 7.42578 25.9062 13.9531 25.9062ZM13.9531 23.9141C8.42188 23.9141 4.00391 19.4844 4.00391 13.9531C4.00391 8.42188 8.41016 3.99219 13.9414 3.99219C19.4727 3.99219 23.9141 8.42188 23.9141 13.9531C23.9141 19.4844 19.4844 23.9141 13.9531 23.9141ZM13.9297 17.6914C14.1406 17.6914 14.3516 17.5859 14.5156 17.4219L18.4883 13.3906C18.6758 13.2031 18.7344 13.0039 18.7344 12.793C18.7344 12.3711 18.4297 12.0195 17.9961 12.0195C17.7852 12.0195 17.5742 12.0898 17.4102 12.2539L16.6836 13.0039L14.5859 15.3711L14.7148 13.2266V7.84766C14.7148 7.40234 14.375 7.07422 13.9297 7.07422C13.4609 7.07422 13.1445 7.40234 13.1445 7.84766V13.2266L13.2734 15.3828L11.1406 12.9922L10.4727 12.2539C10.3203 12.0898 10.1445 12.0195 9.89844 12.0195C9.45312 12.0195 9.14844 12.3477 9.14844 12.793C9.14844 12.9805 9.24219 13.2266 9.38281 13.3789L13.3438 17.4219C13.5078 17.5977 13.7188 17.6914 13.9297 17.6914ZM9.54688 20.1523H18.3477C18.8047 20.1523 19.1211 19.8242 19.1211 19.3555C19.1211 18.9102 18.8047 18.582 18.3477 18.582H9.54688C9.08984 18.582 8.76172 18.9102 8.76172 19.3555C8.76172 19.8242 9.08984 20.1523 9.54688 20.1523Z" />
</svg>
